<svg xmlns="http://www.w3.org/2000/svg" xmlns:svg="http://www.w3.org/2000/svg" id="svg8" width="210mm" height="297mm" version="1.1" viewBox="0 0 210 297"><defs id="defs2"><marker id="Arrow1Lend" orient="auto" refX="0" refY="0" style="overflow:visible"><path id="path2300" d="M 0.0,0.0 L 5.0,-5.0 L -12.5,0.0 L 5.0,5.0 L 0.0,0.0 z" style="fill-rule:evenodd;stroke:#000;stroke-width:1pt;stroke-opacity:1;fill:#000;fill-opacity:1" transform="scale(0.8) rotate(180) translate(12.5,0)"/></marker><marker id="marker2569" orient="auto" refX="0" refY="0" style="overflow:visible"><path id="path2567" d="M 0.0,0.0 L 5.0,-5.0 L -12.5,0.0 L 5.0,5.0 L 0.0,0.0 z" style="fill-rule:evenodd;stroke:#000;stroke-width:1pt;stroke-opacity:1;fill:#000;fill-opacity:1" transform="scale(0.8) translate(12.5,0)"/></marker><marker id="marker2565" orient="auto" refX="0" refY="0" style="overflow:visible"><path id="path2563" d="M 0.0,0.0 L 5.0,-5.0 L -12.5,0.0 L 5.0,5.0 L 0.0,0.0 z" style="fill-rule:evenodd;stroke:#000;stroke-width:1pt;stroke-opacity:1;fill:#000;fill-opacity:1" transform="scale(0.8) translate(12.5,0)"/></marker><marker id="Arrow1Lstart" orient="auto" refX="0" refY="0" style="overflow:visible"><path id="path2297" d="M 0.0,0.0 L 5.0,-5.0 L -12.5,0.0 L 5.0,5.0 L 0.0,0.0 z" style="fill-rule:evenodd;stroke:#000;stroke-width:1pt;stroke-opacity:1;fill:#000;fill-opacity:1" transform="scale(0.8) translate(12.5,0)"/></marker><marker id="Arrow1Lend-9" orient="auto" refX="0" refY="0" style="overflow:visible"><path id="path2300-5" d="M 0,0 5,-5 -12.5,0 5,5 Z" style="fill:#000;fill-opacity:1;fill-rule:evenodd;stroke:#000;stroke-width:1.00000003pt;stroke-opacity:1" transform="matrix(-0.8,0,0,-0.8,-10,0)"/></marker><marker id="Arrow1Lend-9-1" orient="auto" refX="0" refY="0" style="overflow:visible"><path id="path2300-5-0" d="M 0,0 5,-5 -12.5,0 5,5 Z" style="fill:#000;fill-opacity:1;fill-rule:evenodd;stroke:#000;stroke-width:1.00000003pt;stroke-opacity:1" transform="matrix(-0.8,0,0,-0.8,-10,0)"/></marker><marker id="Arrow1Lend-9-1-4" orient="auto" refX="0" refY="0" style="overflow:visible"><path id="path2300-5-0-8" d="M 0,0 5,-5 -12.5,0 5,5 Z" style="fill:#000;fill-opacity:1;fill-rule:evenodd;stroke:#000;stroke-width:1.00000003pt;stroke-opacity:1" transform="matrix(-0.8,0,0,-0.8,-10,0)"/></marker><marker id="Arrow1Lend-9-1-4-1" orient="auto" refX="0" refY="0" style="overflow:visible"><path id="path2300-5-0-8-0" d="M 0,0 5,-5 -12.5,0 5,5 Z" style="fill:#000;fill-opacity:1;fill-rule:evenodd;stroke:#000;stroke-width:1.00000003pt;stroke-opacity:1" transform="matrix(-0.8,0,0,-0.8,-10,0)"/></marker><marker id="Arrow1Lend-9-1-4-1-2" orient="auto" refX="0" refY="0" style="overflow:visible"><path id="path2300-5-0-8-0-4" d="M 0,0 5,-5 -12.5,0 5,5 Z" style="fill:#000;fill-opacity:1;fill-rule:evenodd;stroke:#000;stroke-width:1.00000003pt;stroke-opacity:1" transform="matrix(-0.8,0,0,-0.8,-10,0)"/></marker><marker id="Arrow1Lend-9-1-4-6" orient="auto" refX="0" refY="0" style="overflow:visible"><path id="path2300-5-0-8-6" d="M 0,0 5,-5 -12.5,0 5,5 Z" style="fill:#000;fill-opacity:1;fill-rule:evenodd;stroke:#000;stroke-width:1.00000003pt;stroke-opacity:1" transform="matrix(-0.8,0,0,-0.8,-10,0)"/></marker><marker id="Arrow1Lend-2" orient="auto" refX="0" refY="0" style="overflow:visible"><path id="path2300-51" d="M 0,0 5,-5 -12.5,0 5,5 Z" style="fill:#000;fill-opacity:1;fill-rule:evenodd;stroke:#000;stroke-width:1.00000003pt;stroke-opacity:1" transform="matrix(-0.8,0,0,-0.8,-10,0)"/></marker><marker id="Arrow1Lend-2-1" orient="auto" refX="0" refY="0" style="overflow:visible"><path id="path2300-51-1" d="M 0,0 5,-5 -12.5,0 5,5 Z" style="fill:#000;fill-opacity:1;fill-rule:evenodd;stroke:#000;stroke-width:1.00000003pt;stroke-opacity:1" transform="matrix(-0.8,0,0,-0.8,-10,0)"/></marker><marker id="marker5305" orient="auto" refX="0" refY="0" style="overflow:visible"><path id="path5303" d="M 0,0 5,-5 -12.5,0 5,5 Z" style="fill:#000;fill-opacity:1;fill-rule:evenodd;stroke:#000;stroke-width:1.00000003pt;stroke-opacity:1" transform="matrix(-0.8,0,0,-0.8,-10,0)"/></marker></defs><metadata id="metadata5"/><g id="layer1"><rect style="fill:#dbdbdb;fill-opacity:1;stroke:none;stroke-width:.9189046;stroke-linecap:round;stroke-linejoin:round;stroke-miterlimit:4;stroke-dasharray:none;stroke-opacity:1" id="rect4518" width="19.465" height="10.906" x="39.616" y="74.856" ry="2.974"/><rect style="fill:#dbdbdb;fill-opacity:1;stroke:none;stroke-width:1.42190254;stroke-miterlimit:4;stroke-dasharray:none;stroke-opacity:1" id="rect4518-4" width="30.057" height="16.912" x="34.544" y="105.524" ry="4.693"/><text xml:space="preserve" style="font-style:normal;font-weight:400;font-size:3.66444111px;line-height:1.25;font-family:sans-serif;letter-spacing:0;word-spacing:0;fill:#000;fill-opacity:1;stroke:none;stroke-width:.09161102" id="text4532-4" x="40.704" y="99.907" transform="scale(0.86442549,1.1568377)"><tspan id="tspan4530-9" x="40.704" y="99.907" style="stroke-width:.09161102">Buggy component</tspan></text><path style="fill:none;stroke:#000;stroke-width:.205319;stroke-linecap:butt;stroke-linejoin:miter;stroke-miterlimit:4;stroke-dasharray:none;stroke-opacity:1;marker-end:url(#Arrow1Lend)" id="path2295" d="M 48.979423,93.172138 C 48.057778,109.09753 20.635581,93.774737 14.911777,106.22632"/><g id="g2652"><flowRoot style="fill:#000;fill-opacity:1;stroke:none;font-family:sans-serif;font-style:normal;font-weight:400;font-size:40px;line-height:1.25;letter-spacing:0;word-spacing:0" id="flowRoot2640" xml:space="preserve"><flowRegion id="flowRegion2642"><rect id="rect2644" width="343.772" height="92.03" x="401.961" y="498.943"/></flowRegion><flowPara id="flowPara2646"/></flowRoot></g><rect style="fill:#dbdbdb;fill-opacity:1;stroke:none;stroke-width:.9189046;stroke-linecap:round;stroke-linejoin:round;stroke-miterlimit:4;stroke-dasharray:none;stroke-opacity:1" id="rect4518-5" width="19.465" height="10.906" x="23.789" y="54.93" ry="2.974"/><rect style="fill:#dbdbdb;fill-opacity:1;stroke:none;stroke-width:.9189046;stroke-linecap:round;stroke-linejoin:round;stroke-miterlimit:4;stroke-dasharray:none;stroke-opacity:1" id="rect4518-3" width="19.465" height="10.906" x="52.07" y="44.12" ry="2.974"/><path style="fill:none;stroke:#000;stroke-width:.205319;stroke-linecap:butt;stroke-linejoin:miter;stroke-miterlimit:4;stroke-dasharray:none;stroke-opacity:1;marker-end:url(#Arrow1Lend-9)" id="path2295-7" d="M 62.894115,54.748249 50.009557,74.572292"/><path style="fill:none;stroke:#000;stroke-width:.205319;stroke-linecap:butt;stroke-linejoin:miter;stroke-miterlimit:4;stroke-dasharray:none;stroke-opacity:1;marker-end:url(#Arrow1Lend-9-1)" id="path2295-7-4" d="m 33.805643,65.836723 16.203914,8.735569"/><path style="fill:none;stroke:#000;stroke-width:.205319;stroke-linecap:butt;stroke-linejoin:miter;stroke-miterlimit:4;stroke-dasharray:none;stroke-opacity:1;marker-end:url(#Arrow1Lend-9-1-4)" id="path2295-7-4-7" d="m 22.648072,44.828054 11.783657,9.762438"/><path style="fill:none;stroke:#000;stroke-width:.205319;stroke-linecap:butt;stroke-linejoin:miter;stroke-miterlimit:4;stroke-dasharray:none;stroke-opacity:1;marker-end:url(#Arrow1Lend-9-1-4-1)" id="path2295-7-4-7-7" d="m 40.175239,39.412644 -5.74351,15.177848"/><path style="fill:none;stroke:#000;stroke-width:.205319;stroke-linecap:butt;stroke-linejoin:miter;stroke-miterlimit:4;stroke-dasharray:none;stroke-opacity:1;marker-end:url(#Arrow1Lend-9-1-4-6)" id="path2295-7-4-7-3" d="M 50.075198,34.564883 61.858855,44.32732"/><path style="fill:none;stroke:#000;stroke-width:.205319;stroke-linecap:butt;stroke-linejoin:miter;stroke-miterlimit:4;stroke-dasharray:none;stroke-opacity:1;marker-end:url(#Arrow1Lend-9-1-4-1-2)" id="path2295-7-4-7-7-7" d="M 67.602365,29.149473 61.858855,44.32732"/><path style="fill:none;stroke:#000;stroke-width:.19750585;stroke-linecap:butt;stroke-linejoin:miter;stroke-miterlimit:4;stroke-dasharray:none;stroke-opacity:1;marker-end:url(#Arrow1Lend-2)" id="path2295-1" d="m 48.917645,85.79144 v 19.35438"/><rect style="fill:#dbdbdb;fill-opacity:1;stroke:none;stroke-width:1.22497702;stroke-miterlimit:4;stroke-dasharray:none;stroke-opacity:1" id="rect4518-4-5" width="24.161" height="15.615" x="1.459" y="106.523" ry="4.333"/><text xml:space="preserve" style="font-style:normal;font-weight:400;font-size:3.41907191px;line-height:1.25;font-family:sans-serif;letter-spacing:0;word-spacing:0;fill:#000;fill-opacity:1;stroke:none;stroke-width:.08547679" id="text4532-4-9" x="15.305" y="102.771" transform="scale(0.90446959,1.1056204)"><tspan x="15.305" y="102.771" style="text-align:center;text-anchor:middle;stroke-width:.08547679" id="tspan1099">FileWriter</tspan><tspan x="15.305" y="107.045" style="text-align:center;text-anchor:middle;stroke-width:.08547679" id="tspan1101">(debug.feats)</tspan></text><rect style="fill:#dbdbdb;fill-opacity:1;stroke:none;stroke-width:1.43105376;stroke-miterlimit:4;stroke-dasharray:none;stroke-opacity:1" id="rect4518-4-1" width="30.057" height="17.13" x="89.631" y="104.761" ry="4.754"/><text xml:space="preserve" style="font-style:normal;font-weight:400;font-size:3.52284288px;line-height:1.25;font-family:sans-serif;letter-spacing:0;word-spacing:0;fill:#000;fill-opacity:1;stroke:none;stroke-width:.08807106" id="text4532-4-2" x="103.381" y="101.009" transform="scale(0.87691847,1.1403569)"><tspan id="tspan4530-9-2" x="103.381" y="101.009" style="stroke-width:.08807106">Buggy component</tspan></text><path style="fill:none;stroke:#000;stroke-width:.205319;stroke-linecap:butt;stroke-linejoin:miter;stroke-miterlimit:4;stroke-dasharray:none;stroke-opacity:1;marker-end:url(#Arrow1Lend-2-1)" id="path2295-1-7" d="M 105.0419,83.247145 V 104.1631"/><rect style="fill:#dbdbdb;fill-opacity:1;stroke:none;stroke-width:1.22497714;stroke-miterlimit:4;stroke-dasharray:none;stroke-opacity:1" id="rect4518-4-5-3" width="24.161" height="15.615" x="92.525" y="66.989" ry="4.333"/><text xml:space="preserve" style="font-style:normal;font-weight:400;font-size:3.30437493px;line-height:1.25;font-family:sans-serif;letter-spacing:0;word-spacing:0;fill:#000;fill-opacity:1;stroke:none;stroke-width:.08260938" id="text4532-4-9-9" x="114.408" y="67.199" transform="scale(0.91601248,1.0916882)"><tspan x="114.408" y="67.199" style="text-align:center;text-anchor:middle;stroke-width:.08260938" id="tspan1099-8">FileFeeder</tspan><tspan x="114.408" y="71.33" style="text-align:center;text-anchor:middle;stroke-width:.08260938" id="tspan1101-80">(debug.feats)</tspan></text><path style="fill:none;stroke:#000;stroke-width:.36664769;stroke-linecap:butt;stroke-linejoin:miter;stroke-miterlimit:4;stroke-dasharray:none;stroke-opacity:1;marker-end:url(#marker5305)" id="path5301" d="m 70.816495,89.645965 h 15.73549"/><text xml:space="preserve" style="font-style:normal;font-weight:400;font-size:10.58333302px;line-height:1.25;font-family:sans-serif;letter-spacing:0;word-spacing:0;fill:#000;fill-opacity:1;stroke:none;stroke-width:.26458332" id="text1554" x="45.806" y="81.02"><tspan id="tspan1552" x="45.806" y="81.02" style="font-size:6.3499999px;stroke-width:.26458332">...</tspan></text><text xml:space="preserve" style="font-style:normal;font-weight:400;font-size:10.58333302px;line-height:1.25;font-family:sans-serif;letter-spacing:0;word-spacing:0;fill:#000;fill-opacity:1;stroke:none;stroke-width:.26458332" id="text1554-3" x="58.668" y="49.905"><tspan id="tspan1552-4" x="58.668" y="49.905" style="font-size:6.3499999px;stroke-width:.26458332">...</tspan></text><text xml:space="preserve" style="font-style:normal;font-weight:400;font-size:10.58333302px;line-height:1.25;font-family:sans-serif;letter-spacing:0;word-spacing:0;fill:#000;fill-opacity:1;stroke:none;stroke-width:.26458332" id="text1554-39" x="30.06" y="60.879"><tspan id="tspan1552-7" x="30.06" y="60.879" style="font-size:6.3499999px;stroke-width:.26458332">...</tspan></text></g></svg>